<svg width="156" height="156" viewBox="0 0 156 156" fill="none" xmlns="http://www.w3.org/2000/svg">
<circle cx="78" cy="78" r="78" fill="#31268D"/>
<path d="M123.738 120.08C116.778 120.08 112.338 115.52 110.418 106.4L107.658 93.08C106.778 88.76 105.778 85.48 104.658 83.24C103.618 81 102.138 79.48 100.218 78.68C98.3783 77.88 95.8183 77.48 92.5383 77.48C91.4183 77.48 90.5383 77.8 89.8983 78.44C89.2583 79 88.9383 79.72 88.9383 80.6V110.6C88.9383 112.28 89.2583 113.44 89.8983 114.08C90.5383 114.64 91.9783 115.12 94.2183 115.52L98.6583 116.24C99.5383 116.4 99.9783 116.84 99.9783 117.56C99.9783 118.52 99.3783 119 98.1783 119H73.8183C72.6183 119 72.0183 118.56 72.0183 117.68C72.0183 116.96 72.5383 116.48 73.5783 116.24L76.3383 115.76C78.0183 115.44 79.0983 115 79.5783 114.44C80.1383 113.88 80.4183 112.76 80.4183 111.08V40.52C80.4183 38.84 80.1383 37.72 79.5783 37.16C79.0983 36.6 78.0183 36.16 76.3383 35.84L73.5783 35.36C72.5383 35.12 72.0183 34.64 72.0183 33.92C72.0183 33.04 72.6183 32.6 73.8183 32.6H98.1783C102.898 32.6 107.098 33.52 110.778 35.36C114.458 37.2 117.338 39.76 119.418 43.04C121.498 46.24 122.538 49.96 122.538 54.2C122.538 59.24 121.018 63.8 117.978 67.88C114.938 71.88 111.098 74.72 106.458 76.4C105.898 76.56 105.578 76.84 105.498 77.24C105.498 77.56 105.778 77.84 106.338 78.08C108.898 79.28 110.898 80.96 112.338 83.12C113.858 85.28 115.018 88.16 115.818 91.76L118.458 104C119.338 108.16 120.378 111.12 121.578 112.88C122.778 114.64 124.298 115.52 126.138 115.52C126.778 115.52 127.338 115.44 127.818 115.28C128.378 115.04 129.058 114.64 129.858 114.08C130.498 113.68 131.098 113.6 131.658 113.84C132.218 114 132.498 114.4 132.498 115.04C132.498 116.4 131.618 117.6 129.858 118.64C128.098 119.6 126.058 120.08 123.738 120.08ZM96.9783 74.48C102.418 74.48 106.538 72.68 109.338 69.08C112.138 65.4 113.538 60.52 113.538 54.44C113.538 48.52 111.898 43.92 108.618 40.64C105.418 37.28 100.978 35.6 95.2983 35.6C91.0583 35.6 88.9383 37.2 88.9383 40.4V67.88C88.9383 72.28 91.6183 74.48 96.9783 74.48Z" fill="white"/>
<path d="M31.2617 120.08C38.2217 120.08 42.6617 115.52 44.5817 106.4L47.3417 93.08C48.2217 88.76 49.2217 85.48 50.3417 83.24C51.3817 81 52.8617 79.48 54.7817 78.68C56.6217 77.88 59.1817 77.48 62.4617 77.48C63.5817 77.48 64.4617 77.8 65.1017 78.44C65.7417 79 66.0617 79.72 66.0617 80.6V110.6C66.0617 112.28 65.7417 113.44 65.1017 114.08C64.4617 114.64 63.0217 115.12 60.7817 115.52L56.3417 116.24C55.4617 116.4 55.0217 116.84 55.0217 117.56C55.0217 118.52 55.6217 119 56.8217 119H81.1817C82.3817 119 82.9817 118.56 82.9817 117.68C82.9817 116.96 82.4617 116.48 81.4217 116.24L78.6617 115.76C76.9817 115.44 75.9017 115 75.4217 114.44C74.8617 113.88 74.5817 112.76 74.5817 111.08V40.52C74.5817 38.84 74.8617 37.72 75.4217 37.16C75.9017 36.6 76.9817 36.16 78.6617 35.84L81.4217 35.36C82.4617 35.12 82.9817 34.64 82.9817 33.92C82.9817 33.04 82.3817 32.6 81.1817 32.6H56.8217C52.1017 32.6 47.9017 33.52 44.2217 35.36C40.5417 37.2 37.6617 39.76 35.5817 43.04C33.5017 46.24 32.4617 49.96 32.4617 54.2C32.4617 59.24 33.9817 63.8 37.0217 67.88C40.0617 71.88 43.9017 74.72 48.5417 76.4C49.1017 76.56 49.4217 76.84 49.5017 77.24C49.5017 77.56 49.2217 77.84 48.6617 78.08C46.1017 79.28 44.1017 80.96 42.6617 83.12C41.1417 85.28 39.9817 88.16 39.1817 91.76L36.5417 104C35.6617 108.16 34.6217 111.12 33.4217 112.88C32.2217 114.64 30.7017 115.52 28.8617 115.52C28.2217 115.52 27.6617 115.44 27.1817 115.28C26.6217 115.04 25.9417 114.64 25.1417 114.08C24.5017 113.68 23.9017 113.6 23.3417 113.84C22.7817 114 22.5017 114.4 22.5017 115.04C22.5017 116.4 23.3817 117.6 25.1417 118.64C26.9017 119.6 28.9417 120.08 31.2617 120.08ZM58.0217 74.48C52.5817 74.48 48.4617 72.68 45.6617 69.08C42.8617 65.4 41.4617 60.52 41.4617 54.44C41.4617 48.52 43.1017 43.92 46.3817 40.64C49.5817 37.28 54.0217 35.6 59.7017 35.6C63.9417 35.6 66.0617 37.2 66.0617 40.4V67.88C66.0617 72.28 63.3817 74.48 58.0217 74.48Z" fill="white"/>
</svg>
